<?xml version="1.0" standalone="no"?>
<!DOCTYPE svg PUBLIC "-//W3C//DTD SVG 20010904//EN"
 "http://www.w3.org/TR/2001/REC-SVG-20010904/DTD/svg10.dtd">
<svg version="1.0" xmlns="http://www.w3.org/2000/svg"
 width="291.000000pt" height="291.000000pt" viewBox="0 0 291.000000 291.000000"
 preserveAspectRatio="xMidYMid meet">
<metadata>
Created by potrace 1.14, written by Peter Selinger 2001-2017
</metadata>
<g transform="translate(0.000000,291.000000) scale(0.100000,-0.100000)"
fill="#000000" stroke="none">
<path d="M623 2469 c-65 -13 -114 -61 -148 -145 -23 -57 -24 -68 -24 -334 -1
-212 2 -286 13 -322 23 -75 63 -130 117 -159 16 -9 70 -13 172 -14 101 -1 151
-5 160 -14 14 -14 19 -899 4 -918 -6 -9 -15 -10 -28 -3 -18 10 -19 30 -17 441
0 236 -2 432 -5 436 -10 9 -399 5 -409 -5 -5 -5 -7 -197 -6 -444 l3 -434 30
-59 c17 -32 47 -72 68 -89 l39 -31 281 -3 c155 -2 297 0 315 3 46 8 96 57 129
123 l28 57 2 453 c1 485 0 503 -50 577 -57 83 -82 93 -256 93 -94 0 -147 4
-155 12 -8 8 -12 99 -13 301 -1 249 1 291 13 296 9 3 20 1 25 -4 7 -7 11 -112
13 -272 1 -162 6 -265 12 -271 7 -7 83 -9 210 -8 l199 3 1 258 c2 302 -6 346
-75 420 -53 58 -61 59 -353 61 -147 0 -280 -2 -295 -5z"/>
<path d="M1577 2472 c-15 -2 -31 -11 -37 -21 -15 -28 -12 -2038 3 -2062 11
-18 25 -19 198 -19 151 0 189 3 199 15 8 10 12 94 12 308 l1 294 156 0 c170 0
191 5 244 59 28 28 50 69 68 129 6 17 10 262 10 560 1 504 0 533 -19 581 -26
69 -65 118 -109 139 -33 16 -76 18 -367 19 -182 1 -343 0 -359 -2z m433 -743
c0 -534 -1 -549 -20 -559 -15 -8 -21 -7 -28 7 -6 11 -10 245 -10 561 0 490 2
543 17 551 40 23 41 13 41 -560z"/>
</g>
</svg>
